<?xml version="1.0" encoding="UTF-8"?>
<svg id="Calque_2" data-name="Calque 2" xmlns="http://www.w3.org/2000/svg" viewBox="0 0 2415.2 438.9">
  <defs>
    <style>
      .cls-1 {
        fill: #fff;
      }
    </style>
  </defs>
  <g id="Calque_1-2" data-name="Calque 1">
    <g>
      <path class="cls-1" d="M712.01,161.78c-4.08-1.67-9.14-2.5-15.17-2.5h-18.46l-7.8,46.72h18.35c6.16,0,11.56-.77,16.2-2.31,4.65-1.53,8.42-3.98,11.31-7.34,2.89-3.36,4.77-7.8,5.65-13.33.88-5.53.44-10.03-1.32-13.52-1.76-3.48-4.68-6.06-8.76-7.72Z"/>
      <polygon class="cls-1" points="869.63 170.58 839.77 234.26 879.72 234.26 871.14 170.58 869.63 170.58"/>
      <polygon class="cls-1" points="2072.96 290.08 2099.17 132.13 2033.57 203.36 2072.96 290.08"/>
      <path class="cls-1" d="M1876.04,177.74c-.88-3.58-2.39-6.67-4.52-9.27-2.14-2.61-4.93-4.6-8.39-5.99-3.45-1.38-7.56-2.07-12.34-2.07-9.17,0-17.36,2.28-24.58,6.83-7.22,4.55-13.22,11.05-17.99,19.5-4.78,8.45-8.17,18.51-10.18,30.19-1.75,11.3-1.8,20.69-.14,28.16,1.67,7.48,4.96,13.07,9.89,16.77,4.93,3.71,11.35,5.56,19.27,5.56,5.27,0,10.12-.63,14.55-1.89,4.43-1.25,8.38-3.06,11.87-5.41,3.48-2.36,6.47-5.18,8.95-8.48,2.48-3.3,4.38-6.95,5.7-10.97h50.03l8.45-50.87h-49.82c.38-4.46.13-8.48-.75-12.06Z"/>
      <polygon class="cls-1" points="2141.55 192.81 2221.05 192.81 2213.89 235.01 2134.39 235.01 2129.12 268.17 2215.09 268.17 2233.11 159.66 2146.83 159.66 2141.55 192.81"/>
      <path class="cls-1" d="M2392.38,236.85c11.01-13.52,18.16-30.01,21.27-48.99,3.21-19.45,1.44-37.03-5.28-52.21-7.11-16.07-18.78-28.48-34.7-36.9-14.18-7.5-31.1-11.3-50.29-11.3H621.87l2.1-12.7,5.01-30.24L584.46,0H186.05c-32.59,0-65.11,12.5-91.56,35.2-26.36,22.62-43.84,52.93-49.2,85.33L5,364.15l-5,30.24,44.52,44.51h398.41c32.59,0,65.1-12.5,91.55-35.19,20.3-17.42,35.32-39.38,43.6-63.34h1834.71l-15.39-40.63-18.6-49.12c4.94-4.13,9.48-8.73,13.58-13.77ZM155.87,368.39H30.66l40.29-243.63c9.02-54.54,60.55-98.76,115.1-98.76h202.67l-7.35,44.48-188.12,71.86-37.38,226.05ZM513.51,269.62c-9.02,54.55-60.55,98.77-115.1,98.77h-202.68l7.36-44.49,188.12-71.86,6.23-37.67h-176.23l7.35-44.49,188.12-71.86,11.91-72.02h125.21l-40.29,243.62ZM889.98,310.37l-4.98-36.92h-63.61l-17.31,36.92h-98.95l-23.3-63.68h-18.05l-10.64,63.68h-52.37l32.02-192.91h83.27c14.32,0,26.41,2.61,36.27,7.82,9.85,5.21,16.95,12.71,21.28,22.51,4.34,9.8,5.37,21.54,3.11,35.23-2.26,13.81-7.24,25.45-14.93,34.9-7.19,8.84-16.21,15.68-27.02,20.5l20.99,55.41,87.5-176.37h71.59l31.65,192.91h-56.52ZM1689.87,310.37l-4.97-36.92h-63.61l-17.32,36.92h-98.94l-23.31-63.68h-18.05l-10.64,63.68h-52.37l25.02-150.71h-51.24l-24.87,150.71h-51.62l24.87-150.71h-138.88l-5.27,33.15h79.5l-7.16,42.2h-79.5l-5.28,33.16h86.28l-7.15,42.2h-138.66l9.18-55.29c-1.6,3.5-3.48,7.03-5.64,10.59-5.15,8.51-11.8,16.33-19.96,23.46-8.17,7.13-17.78,12.89-28.83,17.28-11.05,4.4-23.49,6.6-37.3,6.6-18.09,0-33.67-3.96-46.77-11.87-13.09-7.91-22.57-19.47-28.44-34.66-5.88-15.2-7.05-33.73-3.54-55.58,3.52-21.1,10.46-38.78,20.82-53.03,10.36-14.26,22.95-24.99,37.77-32.22,14.82-7.22,30.58-10.83,47.29-10.83,12.62,0,23.94,1.67,33.96,4.99,10.01,3.33,18.46,8.18,25.33,14.56,6.88,6.37,11.95,14.21,15.22,23.5,1.8,5.12,2.96,10.65,3.48,16.59l9.46-57h377.22c14.32,0,26.41,2.61,36.27,7.82,9.86,5.21,16.95,12.71,21.29,22.51,4.33,9.8,5.37,21.54,3.11,35.23-2.27,13.81-7.24,25.45-14.93,34.9-7.2,8.84-16.2,15.67-27.02,20.49l20.99,55.42,87.49-176.37h71.59l31.65,192.91h-56.52ZM2384.04,183.02c-2.26,13.81-7.23,25.45-14.93,34.9-7.19,8.84-16.19,15.67-27.01,20.49l27.25,71.96h-56.89l-23.31-63.68h-18.05l-10.64,63.68h-240.83l-30.9-72.34-21.47,22.98-8.29,49.36h-52.38l9.18-55.28c-1.59,3.5-3.47,7.02-5.63,10.58-5.15,8.51-11.81,16.33-19.97,23.46-8.17,7.13-17.77,12.89-28.83,17.28-11.05,4.4-23.48,6.6-37.3,6.6-18.08,0-33.67-3.96-46.77-11.87-13.09-7.91-22.57-19.47-28.44-34.66-5.87-15.2-7.05-33.73-3.54-55.58,3.52-21.1,10.46-38.78,20.82-53.03,10.36-14.26,22.95-24.99,37.77-32.22,14.82-7.22,30.59-10.83,47.29-10.83,12.62,0,23.94,1.67,33.96,4.99,10.01,3.33,18.46,8.18,25.34,14.56,6.87,6.37,11.94,14.21,15.21,23.5,1.8,5.12,2.96,10.64,3.48,16.58l9.46-56.99h52.37l-12.81,77.99h2.64l70.84-77.99h271.72c14.32,0,26.41,2.61,36.27,7.82,9.86,5.21,16.95,12.71,21.29,22.51,4.33,9.8,5.36,21.54,3.1,35.23Z"/>
      <path class="cls-1" d="M1511.9,161.78c-4.08-1.67-9.13-2.5-15.16-2.5h-18.46l-7.81,46.72h18.36c6.15,0,11.55-.77,16.2-2.31,4.64-1.53,8.41-3.98,11.3-7.34,2.89-3.36,4.77-7.8,5.65-13.33s.44-10.03-1.32-13.52c-1.76-3.48-4.68-6.06-8.76-7.72Z"/>
      <polygon class="cls-1" points="1669.53 170.58 1639.66 234.26 1679.62 234.26 1671.04 170.58 1669.53 170.58"/>
      <path class="cls-1" d="M2319.33,161.78c-4.08-1.67-9.13-2.5-15.16-2.5h-18.47l-7.8,46.72h18.35c6.16,0,11.56-.77,16.21-2.31,4.64-1.53,8.41-3.98,11.3-7.34,2.89-3.36,4.77-7.8,5.65-13.33.88-5.53.44-10.03-1.32-13.52-1.76-3.48-4.68-6.06-8.76-7.72Z"/>
      <path class="cls-1" d="M1076.15,177.74c-.88-3.58-2.39-6.67-4.53-9.27-2.13-2.61-4.93-4.6-8.38-5.99-3.45-1.38-7.57-2.07-12.34-2.07-9.17,0-17.36,2.28-24.58,6.83-7.23,4.55-13.22,11.05-17.99,19.5-4.78,8.45-8.17,18.51-10.18,30.19-1.76,11.3-1.8,20.69-.14,28.16,1.66,7.48,4.96,13.07,9.89,16.77,4.93,3.71,11.35,5.56,19.26,5.56,5.28,0,10.13-.63,14.56-1.89,4.42-1.25,8.38-3.06,11.87-5.41,3.48-2.36,6.46-5.18,8.94-8.48,2.48-3.3,4.38-6.95,5.7-10.97h50.04l8.45-50.87h-49.82c.38-4.46.12-8.48-.75-12.06Z"/>
    </g>
  </g>
</svg>