<?xml version="1.0" encoding="UTF-8"?>
<svg id="Calque_2" data-name="Calque 2" xmlns="http://www.w3.org/2000/svg" viewBox="0 0 628.98 438.91">
  <defs>
    <style>
      .cls-1 {
        fill: #fff;
      }

      .cls-2 {
        fill: #fb3b3b;
      }
    </style>
  </defs>
  <g id="Calque_1-2" data-name="Calque 1">
    <g>
      <path d="M584.46,0H186.05c-32.59,0-65.11,12.5-91.56,35.2-26.36,22.62-43.84,52.93-49.2,85.33L5,364.15l-5,30.24,44.52,44.52h398.41c32.59,0,65.1-12.5,91.55-35.19,26.37-22.63,43.84-52.93,49.2-85.33l40.29-243.63,5.01-30.24L584.46,0Z"/>
      <path class="cls-2" d="M388.72,26h-202.67c-54.55,0-106.08,44.22-115.1,98.77l-40.29,243.62h125.21l37.38-226.05,188.12-71.86,7.36-44.49Z"/>
      <path class="cls-1" d="M428.59,26l-11.91,72.02-188.12,71.86-7.36,44.49h176.23l-6.23,37.67-188.12,71.86-7.36,44.49h202.67c54.55,0,106.08-44.22,115.1-98.77l40.29-243.62h-125.21Z"/>
    </g>
  </g>
</svg>