<?xml version="1.0" encoding="UTF-8"?>
<svg id="Calque_2" data-name="Calque 2" xmlns="http://www.w3.org/2000/svg" viewBox="0 0 628.97 438.91">
  <defs>
    <style>
      .cls-1 {
        fill: #fff;
      }
    </style>
  </defs>
  <g id="Calque_1-2" data-name="Calque 1">
    <path class="cls-1" d="M584.46,0H186.05c-32.59,0-65.11,12.5-91.56,35.2-26.36,22.62-43.84,52.93-49.2,85.33L5,364.15l-5,30.24,44.51,44.52h398.41c32.59,0,65.1-12.5,91.55-35.19,26.37-22.63,43.84-52.93,49.2-85.33l40.29-243.63,5.01-30.24L584.46,0ZM155.86,368.4H30.65l40.29-243.63c9.02-54.54,60.56-98.77,115.11-98.77h202.67l-7.36,44.49-188.11,71.86-37.39,226.05ZM513.51,269.63c-9.02,54.55-60.56,98.77-115.11,98.77h-202.67l7.36-44.49,188.11-71.86,6.23-37.67h-176.23l7.36-44.49,188.12-71.86,11.91-72.03h125.21l-40.29,243.63Z"/>
  </g>
</svg>