<?xml version="1.0" encoding="UTF-8"?>
<svg id="Calque_2" data-name="Calque 2" xmlns="http://www.w3.org/2000/svg" viewBox="0 0 2415.2 438.91">
  <defs>
    <style>
      .cls-1 {
        fill: #fff;
      }

      .cls-2 {
        fill: #fb3b3b;
      }

      .cls-3 {
        fill: #f2f2f2;
      }
    </style>
  </defs>
  <g id="Calque_1-2" data-name="Calque 1">
    <g>
      <path d="M584.46,0H186.05c-32.59,0-65.11,12.5-91.56,35.2-26.36,22.62-43.84,52.93-49.2,85.33L5,364.15l-5,30.24,44.52,44.52h398.41c32.59,0,65.1-12.5,91.55-35.19,26.37-22.63,43.84-52.93,49.2-85.33l40.29-243.63,5.01-30.24L584.46,0Z"/>
      <path class="cls-2" d="M388.72,26h-202.67c-54.55,0-106.08,44.22-115.1,98.77l-40.29,243.62h125.21l37.38-226.05,188.12-71.86,7.36-44.49Z"/>
      <path class="cls-1" d="M428.59,26l-11.91,72.02-188.12,71.86-7.36,44.49h176.23l-6.23,37.67-188.12,71.86-7.36,44.49h202.67c54.55,0,106.08-44.22,115.1-98.77l40.29-243.62h-125.21Z"/>
      <path d="M2378.8,250.63l18.6,49.12,15.39,40.63H565.37l5.8-34.92,32.03-192.91,4.16-25.09h1716.02c19.19,0,36.11,3.8,50.29,11.3,15.92,8.42,27.59,20.83,34.7,36.9,6.72,15.18,8.49,32.76,5.28,52.21-3.11,18.98-10.26,35.47-21.27,48.99-4.1,5.04-8.64,9.64-13.58,13.77Z"/>
      <g>
        <path class="cls-3" d="M600.77,310.37l32.03-192.91h83.27c14.32,0,26.41,2.61,36.27,7.82,9.86,5.21,16.96,12.72,21.29,22.51,4.33,9.8,5.37,21.54,3.11,35.23-2.26,13.82-7.24,25.45-14.93,34.9-7.69,9.45-17.46,16.61-29.29,21.48-11.84,4.87-25.1,7.3-39.8,7.3h-49.73l6.78-40.69h39.19c6.15,0,11.55-.77,16.2-2.31,4.65-1.54,8.41-3.99,11.3-7.35,2.89-3.36,4.77-7.8,5.65-13.33.88-5.53.44-10.03-1.32-13.52-1.76-3.49-4.68-6.06-8.76-7.72-4.08-1.66-9.14-2.5-15.17-2.5h-18.46l-25.24,151.09h-52.37ZM728.49,221.83l33.53,88.54h-56.89l-32.4-88.54h55.76Z"/>
        <path class="cls-3" d="M804.08,310.37h-56.52l95.7-192.91h71.59l31.65,192.91h-56.52l-18.84-139.79h-1.51l-65.56,139.79ZM806.34,234.26h106.25l-6.78,39.19h-106.25l6.78-39.19Z"/>
        <path class="cls-3" d="M1129.27,189.8h-52.37c.38-4.46.12-8.48-.75-12.06-.88-3.58-2.39-6.67-4.52-9.28-2.14-2.6-4.93-4.6-8.38-5.98-3.45-1.38-7.57-2.07-12.34-2.07-9.17,0-17.36,2.28-24.58,6.83-7.22,4.55-13.22,11.05-17.99,19.5-4.77,8.45-8.16,18.51-10.17,30.19-1.76,11.3-1.81,20.69-.14,28.16,1.66,7.47,4.96,13.06,9.89,16.77,4.93,3.71,11.35,5.56,19.26,5.56,5.27,0,10.13-.63,14.55-1.88,4.43-1.26,8.38-3.06,11.87-5.42,3.48-2.35,6.47-5.18,8.95-8.48,2.48-3.3,4.38-6.95,5.7-10.97h52.75c-2.01,8.16-5.59,16.5-10.74,25.01-5.15,8.51-11.81,16.33-19.97,23.45-8.16,7.13-17.77,12.89-28.82,17.29-11.05,4.39-23.49,6.59-37.3,6.59-18.09,0-33.67-3.96-46.77-11.87-13.09-7.91-22.58-19.47-28.45-34.66-5.87-15.2-7.05-33.72-3.53-55.58,3.52-21.1,10.46-38.78,20.82-53.03,10.36-14.25,22.95-24.99,37.77-32.21,14.82-7.22,30.58-10.83,47.29-10.83,12.62,0,23.94,1.66,33.96,4.99,10.02,3.33,18.46,8.18,25.34,14.55,6.88,6.37,11.95,14.21,15.21,23.5,3.26,9.29,4.43,19.94,3.49,31.93Z"/>
        <path class="cls-3" d="M1106.7,310.37l32.03-192.91h139.03l-7.16,42.2h-86.66l-5.28,33.16h79.5l-7.16,42.2h-79.5l-5.27,33.16h86.28l-7.16,42.2h-138.65Z"/>
        <path class="cls-3" d="M1264.8,159.66l7.16-42.2h167.67l-7.16,42.2h-58.02l-24.87,150.71h-51.62l24.87-150.71h-58.02Z"/>
        <path class="cls-3" d="M1400.66,310.37l32.03-192.91h83.27c14.32,0,26.41,2.61,36.26,7.82,9.86,5.21,16.96,12.72,21.29,22.51,4.33,9.8,5.37,21.54,3.11,35.23-2.26,13.82-7.24,25.45-14.93,34.9-7.69,9.45-17.46,16.61-29.29,21.48-11.84,4.87-25.1,7.3-39.8,7.3h-49.74l6.78-40.69h39.18c6.15,0,11.55-.77,16.2-2.31,4.65-1.54,8.41-3.99,11.3-7.35,2.89-3.36,4.77-7.8,5.65-13.33.88-5.53.44-10.03-1.32-13.52-1.76-3.49-4.68-6.06-8.76-7.72-4.08-1.66-9.14-2.5-15.17-2.5h-18.46l-25.24,151.09h-52.37ZM1528.39,221.83l33.53,88.54h-56.89l-32.4-88.54h55.76Z"/>
        <path class="cls-3" d="M1603.97,310.37h-56.52l95.7-192.91h71.59l31.65,192.91h-56.52l-18.84-139.79h-1.51l-65.56,139.79ZM1606.23,234.26h106.25l-6.78,39.19h-106.25l6.78-39.19Z"/>
        <path class="cls-3" d="M1929.16,189.8h-52.37c.38-4.46.12-8.48-.75-12.06-.88-3.58-2.39-6.67-4.52-9.28-2.14-2.6-4.93-4.6-8.38-5.98-3.45-1.38-7.57-2.07-12.34-2.07-9.17,0-17.36,2.28-24.58,6.83-7.22,4.55-13.22,11.05-17.99,19.5-4.77,8.45-8.16,18.51-10.17,30.19-1.76,11.3-1.81,20.69-.14,28.16,1.66,7.47,4.96,13.06,9.89,16.77,4.93,3.71,11.35,5.56,19.26,5.56,5.27,0,10.13-.63,14.55-1.88,4.43-1.26,8.38-3.06,11.87-5.42,3.49-2.35,6.47-5.18,8.95-8.48,2.48-3.3,4.38-6.95,5.7-10.97h52.75c-2.01,8.16-5.59,16.5-10.74,25.01-5.15,8.51-11.81,16.33-19.97,23.45-8.16,7.13-17.77,12.89-28.82,17.29-11.05,4.39-23.49,6.59-37.3,6.59-18.08,0-33.67-3.96-46.77-11.87-13.09-7.91-22.58-19.47-28.45-34.66-5.87-15.2-7.05-33.72-3.53-55.58,3.52-21.1,10.46-38.78,20.82-53.03,10.36-14.25,22.95-24.99,37.77-32.21,14.82-7.22,30.58-10.83,47.29-10.83,12.62,0,23.94,1.66,33.96,4.99,10.02,3.33,18.46,8.18,25.34,14.55,6.88,6.37,11.95,14.21,15.21,23.5,3.26,9.29,4.43,19.94,3.49,31.93Z"/>
        <path class="cls-3" d="M1906.59,310.37l32.03-192.91h52.37l-12.81,77.99h2.64l70.83-77.99h61.04l-79.12,85.91,48.6,107.01h-62.54l-30.9-72.34-21.48,22.98-8.29,49.36h-52.37Z"/>
        <path class="cls-3" d="M2069.59,310.37l32.03-192.91h139.03l-7.16,42.2h-86.66l-5.28,33.16h79.5l-7.16,42.2h-79.5l-5.27,33.16h86.28l-7.16,42.2h-138.66Z"/>
        <path class="cls-3" d="M2208.09,310.37l32.03-192.91h83.27c14.32,0,26.41,2.61,36.26,7.82,9.86,5.21,16.96,12.72,21.29,22.51,4.33,9.8,5.37,21.54,3.11,35.23-2.26,13.82-7.24,25.45-14.93,34.9-7.69,9.45-17.46,16.61-29.29,21.48-11.84,4.87-25.1,7.3-39.8,7.3h-49.74l6.78-40.69h39.18c6.15,0,11.55-.77,16.2-2.31,4.65-1.54,8.41-3.99,11.3-7.35,2.89-3.36,4.77-7.8,5.65-13.33.88-5.53.44-10.03-1.32-13.52-1.76-3.49-4.68-6.06-8.76-7.72-4.08-1.66-9.14-2.5-15.17-2.5h-18.46l-25.24,151.09h-52.37ZM2335.82,221.83l33.53,88.54h-56.89l-32.4-88.54h55.76Z"/>
      </g>
    </g>
  </g>
</svg>